<?xml version="1.0" encoding="utf-8"?>
<!-- Generator: Adobe Illustrator 26.1.0, SVG Export Plug-In . SVG Version: 6.00 Build 0)  -->
<svg version="1.1" id="Calque_1" xmlns="http://www.w3.org/2000/svg" xmlns:xlink="http://www.w3.org/1999/xlink" x="0px" y="0px"
	 viewBox="0 0 198 59.7" style="enable-background:new 0 0 198 59.7;" xml:space="preserve">
<g>
	<path d="M42.2,14.4v11h17.7v10.2H42.2v11.9h20v10.6H29V3.8h33.3v10.6H42.2z"/>
	<path d="M89.9,16.6c2.3-1.4,4.9-2,7.7-2v14H94c-3.3,0-5.8,0.7-7.4,2.1c-1.7,1.4-2.5,3.9-2.5,7.5v20H70.8V15h13.2v7.2
		C85.6,19.8,87.6,17.9,89.9,16.6z"/>
	<path d="M117.2,0.9v57.2h-13.2V0.9H117.2z"/>
	<path d="M135,56.1c-3.4-1.8-6-4.4-8-7.7c-1.9-3.4-2.9-7.3-2.9-11.8c0-4.4,1-8.3,2.9-11.7c2-3.4,4.6-6,8-7.8
		c3.4-1.8,7.2-2.7,11.4-2.7c4.2,0,8,0.9,11.4,2.7c3.4,1.8,6.1,4.4,8,7.8c2,3.4,2.9,7.3,2.9,11.7c0,4.4-1,8.3-3,11.7
		c-2,3.4-4.7,6-8.1,7.8c-3.4,1.8-7.3,2.7-11.5,2.7C142.2,58.8,138.4,57.9,135,56.1z M152.9,44.5c1.8-1.9,2.7-4.5,2.7-8
		c0-3.5-0.9-6.1-2.6-8c-1.7-1.9-3.9-2.8-6.4-2.8c-2.6,0-4.7,0.9-6.4,2.7c-1.7,1.8-2.6,4.5-2.6,8c0,3.5,0.8,6.1,2.5,8
		c1.7,1.9,3.8,2.8,6.3,2.8C148.9,47.3,151.1,46.4,152.9,44.5z"/>
</g>
</svg>
