<svg id="Calque_1" data-name="Calque 1" xmlns="http://www.w3.org/2000/svg" viewBox="0 0 198 59.67"><path d="M16.18,13.87v9.49H34.75v12.3H16.18V46.14h21v13H0V.91H37.22v13Z"/><path d="M74.69,59.1,63.14,37.64H61.41V59.1H45.23V.91h25.5A26.44,26.44,0,0,1,82.62,3.34,17.09,17.09,0,0,1,90,10a18.58,18.58,0,0,1,2.48,9.53A17.35,17.35,0,0,1,89.18,30a17.66,17.66,0,0,1-9.53,6.4L92.77,59.1ZM61.41,26.58h8a7,7,0,0,0,5-1.57A6,6,0,0,0,76,20.47a5.82,5.82,0,0,0-1.69-4.42,6.87,6.87,0,0,0-4.91-1.61h-8Z"/><path d="M116,46.72H134V59.1H99.78V.91H116Z"/><path d="M153.18,55.83a28.57,28.57,0,0,1-10.85-10.64,29.78,29.78,0,0,1-4-15.39,29.79,29.79,0,0,1,4-15.4A28.32,28.32,0,0,1,153.18,3.8a31.68,31.68,0,0,1,30.09,0A28,28,0,0,1,194,14.4a30.06,30.06,0,0,1,4,15.4,30,30,0,0,1-4,15.39,28.25,28.25,0,0,1-10.81,10.64,31.31,31.31,0,0,1-30,0ZM178,40.61q3.58-4.05,3.59-10.81,0-6.94-3.59-10.94a12.49,12.49,0,0,0-9.78-4q-6.28,0-9.83,4T154.83,29.8q0,6.84,3.55,10.85t9.83,4A12.45,12.45,0,0,0,178,40.61Z"/></svg>